<?xml version="1.0" encoding="utf-8"?>
<svg xmlns="http://www.w3.org/2000/svg" xmlns:xlink="http://www.w3.org/1999/xlink" width="600" height="400" viewBox="0 0 2400 1600">
<defs>
  <clipPath id="clip550">
    <rect x="0" y="0" width="2400" height="1600"/>
  </clipPath>
</defs>
<path clip-path="url(#clip550)" d="M0 1600 L2400 1600 L2400 8.88178e-14 L0 8.88178e-14  Z" fill="#ffffff" fill-rule="evenodd" fill-opacity="1"/>
<defs>
  <clipPath id="clip551">
    <rect x="480" y="0" width="1681" height="1600"/>
  </clipPath>
</defs>
<path clip-path="url(#clip550)" d="M186.274 1486.45 L2352.76 1486.45 L2352.76 123.472 L186.274 123.472  Z" fill="#ffffff" fill-rule="evenodd" fill-opacity="1"/>
<defs>
  <clipPath id="clip552">
    <rect x="186" y="123" width="2167" height="1364"/>
  </clipPath>
</defs>
<polyline clip-path="url(#clip552)" style="stroke:#000000; stroke-linecap:round; stroke-linejoin:round; stroke-width:2; stroke-opacity:0.1; fill:none" points="520.103,1486.45 520.103,123.472 "/>
<polyline clip-path="url(#clip552)" style="stroke:#000000; stroke-linecap:round; stroke-linejoin:round; stroke-width:2; stroke-opacity:0.1; fill:none" points="928.873,1486.45 928.873,123.472 "/>
<polyline clip-path="url(#clip552)" style="stroke:#000000; stroke-linecap:round; stroke-linejoin:round; stroke-width:2; stroke-opacity:0.1; fill:none" points="1337.64,1486.45 1337.64,123.472 "/>
<polyline clip-path="url(#clip552)" style="stroke:#000000; stroke-linecap:round; stroke-linejoin:round; stroke-width:2; stroke-opacity:0.1; fill:none" points="1746.41,1486.45 1746.41,123.472 "/>
<polyline clip-path="url(#clip552)" style="stroke:#000000; stroke-linecap:round; stroke-linejoin:round; stroke-width:2; stroke-opacity:0.1; fill:none" points="2155.18,1486.45 2155.18,123.472 "/>
<polyline clip-path="url(#clip552)" style="stroke:#000000; stroke-linecap:round; stroke-linejoin:round; stroke-width:2; stroke-opacity:0.1; fill:none" points="186.274,1340.97 2352.76,1340.97 "/>
<polyline clip-path="url(#clip552)" style="stroke:#000000; stroke-linecap:round; stroke-linejoin:round; stroke-width:2; stroke-opacity:0.1; fill:none" points="186.274,1125.6 2352.76,1125.6 "/>
<polyline clip-path="url(#clip552)" style="stroke:#000000; stroke-linecap:round; stroke-linejoin:round; stroke-width:2; stroke-opacity:0.1; fill:none" points="186.274,910.224 2352.76,910.224 "/>
<polyline clip-path="url(#clip552)" style="stroke:#000000; stroke-linecap:round; stroke-linejoin:round; stroke-width:2; stroke-opacity:0.1; fill:none" points="186.274,694.852 2352.76,694.852 "/>
<polyline clip-path="url(#clip552)" style="stroke:#000000; stroke-linecap:round; stroke-linejoin:round; stroke-width:2; stroke-opacity:0.1; fill:none" points="186.274,479.48 2352.76,479.48 "/>
<polyline clip-path="url(#clip552)" style="stroke:#000000; stroke-linecap:round; stroke-linejoin:round; stroke-width:2; stroke-opacity:0.1; fill:none" points="186.274,264.109 2352.76,264.109 "/>
<polyline clip-path="url(#clip550)" style="stroke:#000000; stroke-linecap:round; stroke-linejoin:round; stroke-width:4; stroke-opacity:1; fill:none" points="186.274,1486.45 2352.76,1486.45 "/>
<polyline clip-path="url(#clip550)" style="stroke:#000000; stroke-linecap:round; stroke-linejoin:round; stroke-width:4; stroke-opacity:1; fill:none" points="520.103,1486.45 520.103,1467.55 "/>
<polyline clip-path="url(#clip550)" style="stroke:#000000; stroke-linecap:round; stroke-linejoin:round; stroke-width:4; stroke-opacity:1; fill:none" points="928.873,1486.45 928.873,1467.55 "/>
<polyline clip-path="url(#clip550)" style="stroke:#000000; stroke-linecap:round; stroke-linejoin:round; stroke-width:4; stroke-opacity:1; fill:none" points="1337.64,1486.45 1337.64,1467.55 "/>
<polyline clip-path="url(#clip550)" style="stroke:#000000; stroke-linecap:round; stroke-linejoin:round; stroke-width:4; stroke-opacity:1; fill:none" points="1746.41,1486.45 1746.41,1467.55 "/>
<polyline clip-path="url(#clip550)" style="stroke:#000000; stroke-linecap:round; stroke-linejoin:round; stroke-width:4; stroke-opacity:1; fill:none" points="2155.18,1486.45 2155.18,1467.55 "/>
<path clip-path="url(#clip550)" d="M524.351 1530.21 Q527.707 1530.93 529.582 1533.2 Q531.48 1535.47 531.48 1538.8 Q531.48 1543.92 527.962 1546.72 Q524.443 1549.52 517.962 1549.52 Q515.786 1549.52 513.471 1549.08 Q511.179 1548.66 508.726 1547.81 L508.726 1543.29 Q510.67 1544.43 512.985 1545.01 Q515.3 1545.58 517.823 1545.58 Q522.221 1545.58 524.513 1543.85 Q526.827 1542.11 526.827 1538.8 Q526.827 1535.75 524.675 1534.03 Q522.545 1532.3 518.726 1532.3 L514.698 1532.3 L514.698 1528.45 L518.911 1528.45 Q522.36 1528.45 524.189 1527.09 Q526.017 1525.7 526.017 1523.11 Q526.017 1520.45 524.119 1519.03 Q522.244 1517.6 518.726 1517.6 Q516.804 1517.6 514.605 1518.01 Q512.406 1518.43 509.767 1519.31 L509.767 1515.14 Q512.429 1514.4 514.744 1514.03 Q517.082 1513.66 519.142 1513.66 Q524.466 1513.66 527.568 1516.09 Q530.67 1518.5 530.67 1522.62 Q530.67 1525.49 529.027 1527.48 Q527.383 1529.45 524.351 1530.21 Z" fill="#000000" fill-rule="nonzero" fill-opacity="1" /><path clip-path="url(#clip550)" d="M929.278 1529.7 Q926.13 1529.7 924.278 1531.86 Q922.45 1534.01 922.45 1537.76 Q922.45 1541.49 924.278 1543.66 Q926.13 1545.82 929.278 1545.82 Q932.426 1545.82 934.255 1543.66 Q936.107 1541.49 936.107 1537.76 Q936.107 1534.01 934.255 1531.86 Q932.426 1529.7 929.278 1529.7 M938.561 1515.05 L938.561 1519.31 Q936.801 1518.48 934.996 1518.04 Q933.213 1517.6 931.454 1517.6 Q926.825 1517.6 924.371 1520.72 Q921.94 1523.85 921.593 1530.17 Q922.959 1528.15 925.019 1527.09 Q927.079 1526 929.556 1526 Q934.764 1526 937.774 1529.17 Q940.806 1532.32 940.806 1537.76 Q940.806 1543.08 937.658 1546.3 Q934.51 1549.52 929.278 1549.52 Q923.283 1549.52 920.112 1544.94 Q916.94 1540.33 916.94 1531.6 Q916.94 1523.41 920.829 1518.55 Q924.718 1513.66 931.269 1513.66 Q933.028 1513.66 934.811 1514.01 Q936.616 1514.36 938.561 1515.05 Z" fill="#000000" fill-rule="nonzero" fill-opacity="1" /><path clip-path="url(#clip550)" d="M1327.94 1548.13 L1327.94 1543.87 Q1329.7 1544.7 1331.51 1545.14 Q1333.31 1545.58 1335.05 1545.58 Q1339.68 1545.58 1342.11 1542.48 Q1344.56 1539.36 1344.91 1533.01 Q1343.57 1535.01 1341.51 1536.07 Q1339.45 1537.13 1336.95 1537.13 Q1331.76 1537.13 1328.73 1534.01 Q1325.72 1530.86 1325.72 1525.42 Q1325.72 1520.1 1328.87 1516.88 Q1332.02 1513.66 1337.25 1513.66 Q1343.25 1513.66 1346.39 1518.27 Q1349.56 1522.85 1349.56 1531.6 Q1349.56 1539.77 1345.68 1544.66 Q1341.81 1549.52 1335.26 1549.52 Q1333.5 1549.52 1331.69 1549.17 Q1329.89 1548.82 1327.94 1548.13 M1337.25 1533.48 Q1340.4 1533.48 1342.23 1531.32 Q1344.08 1529.17 1344.08 1525.42 Q1344.08 1521.7 1342.23 1519.54 Q1340.4 1517.37 1337.25 1517.37 Q1334.1 1517.37 1332.25 1519.54 Q1330.42 1521.7 1330.42 1525.42 Q1330.42 1529.17 1332.25 1531.32 Q1334.1 1533.48 1337.25 1533.48 Z" fill="#000000" fill-rule="nonzero" fill-opacity="1" /><path clip-path="url(#clip550)" d="M1721.9 1544.91 L1729.54 1544.91 L1729.54 1518.55 L1721.23 1520.21 L1721.23 1515.95 L1729.49 1514.29 L1734.17 1514.29 L1734.17 1544.91 L1741.81 1544.91 L1741.81 1548.85 L1721.9 1548.85 L1721.9 1544.91 Z" fill="#000000" fill-rule="nonzero" fill-opacity="1" /><path clip-path="url(#clip550)" d="M1755.28 1544.91 L1771.6 1544.91 L1771.6 1548.85 L1749.65 1548.85 L1749.65 1544.91 Q1752.32 1542.16 1756.9 1537.53 Q1761.51 1532.88 1762.69 1531.53 Q1764.93 1529.01 1765.81 1527.27 Q1766.71 1525.51 1766.71 1523.82 Q1766.71 1521.07 1764.77 1519.33 Q1762.85 1517.6 1759.75 1517.6 Q1757.55 1517.6 1755.09 1518.36 Q1752.66 1519.13 1749.89 1520.68 L1749.89 1515.95 Q1752.71 1514.82 1755.16 1514.24 Q1757.62 1513.66 1759.65 1513.66 Q1765.02 1513.66 1768.22 1516.35 Q1771.41 1519.03 1771.41 1523.52 Q1771.41 1525.65 1770.6 1527.57 Q1769.82 1529.47 1767.71 1532.07 Q1767.13 1532.74 1764.03 1535.95 Q1760.93 1539.15 1755.28 1544.91 Z" fill="#000000" fill-rule="nonzero" fill-opacity="1" /><path clip-path="url(#clip550)" d="M2130.37 1544.91 L2138.01 1544.91 L2138.01 1518.55 L2129.7 1520.21 L2129.7 1515.95 L2137.96 1514.29 L2142.64 1514.29 L2142.64 1544.91 L2150.28 1544.91 L2150.28 1548.85 L2130.37 1548.85 L2130.37 1544.91 Z" fill="#000000" fill-rule="nonzero" fill-opacity="1" /><path clip-path="url(#clip550)" d="M2159.77 1514.29 L2178.12 1514.29 L2178.12 1518.22 L2164.05 1518.22 L2164.05 1526.7 Q2165.07 1526.35 2166.09 1526.19 Q2167.1 1526 2168.12 1526 Q2173.91 1526 2177.29 1529.17 Q2180.67 1532.34 2180.67 1537.76 Q2180.67 1543.34 2177.2 1546.44 Q2173.73 1549.52 2167.41 1549.52 Q2165.23 1549.52 2162.96 1549.15 Q2160.72 1548.78 2158.31 1548.04 L2158.31 1543.34 Q2160.39 1544.47 2162.61 1545.03 Q2164.84 1545.58 2167.31 1545.58 Q2171.32 1545.58 2173.66 1543.48 Q2175.99 1541.37 2175.99 1537.76 Q2175.99 1534.15 2173.66 1532.04 Q2171.32 1529.94 2167.31 1529.94 Q2165.44 1529.94 2163.56 1530.35 Q2161.71 1530.77 2159.77 1531.65 L2159.77 1514.29 Z" fill="#000000" fill-rule="nonzero" fill-opacity="1" /><polyline clip-path="url(#clip550)" style="stroke:#000000; stroke-linecap:round; stroke-linejoin:round; stroke-width:4; stroke-opacity:1; fill:none" points="186.274,1486.45 186.274,123.472 "/>
<polyline clip-path="url(#clip550)" style="stroke:#000000; stroke-linecap:round; stroke-linejoin:round; stroke-width:4; stroke-opacity:1; fill:none" points="186.274,1340.97 205.172,1340.97 "/>
<polyline clip-path="url(#clip550)" style="stroke:#000000; stroke-linecap:round; stroke-linejoin:round; stroke-width:4; stroke-opacity:1; fill:none" points="186.274,1125.6 205.172,1125.6 "/>
<polyline clip-path="url(#clip550)" style="stroke:#000000; stroke-linecap:round; stroke-linejoin:round; stroke-width:4; stroke-opacity:1; fill:none" points="186.274,910.224 205.172,910.224 "/>
<polyline clip-path="url(#clip550)" style="stroke:#000000; stroke-linecap:round; stroke-linejoin:round; stroke-width:4; stroke-opacity:1; fill:none" points="186.274,694.852 205.172,694.852 "/>
<polyline clip-path="url(#clip550)" style="stroke:#000000; stroke-linecap:round; stroke-linejoin:round; stroke-width:4; stroke-opacity:1; fill:none" points="186.274,479.48 205.172,479.48 "/>
<polyline clip-path="url(#clip550)" style="stroke:#000000; stroke-linecap:round; stroke-linejoin:round; stroke-width:4; stroke-opacity:1; fill:none" points="186.274,264.109 205.172,264.109 "/>
<path clip-path="url(#clip550)" d="M63.0291 1326.77 Q59.418 1326.77 57.5893 1330.33 Q55.7838 1333.87 55.7838 1341 Q55.7838 1348.11 57.5893 1351.67 Q59.418 1355.21 63.0291 1355.21 Q66.6633 1355.21 68.4689 1351.67 Q70.2976 1348.11 70.2976 1341 Q70.2976 1333.87 68.4689 1330.33 Q66.6633 1326.77 63.0291 1326.77 M63.0291 1323.06 Q68.8393 1323.06 71.8948 1327.67 Q74.9735 1332.25 74.9735 1341 Q74.9735 1349.73 71.8948 1354.33 Q68.8393 1358.92 63.0291 1358.92 Q57.2189 1358.92 54.1403 1354.33 Q51.0847 1349.73 51.0847 1341 Q51.0847 1332.25 54.1403 1327.67 Q57.2189 1323.06 63.0291 1323.06 Z" fill="#000000" fill-rule="nonzero" fill-opacity="1" /><path clip-path="url(#clip550)" d="M83.191 1352.37 L88.0753 1352.37 L88.0753 1358.25 L83.191 1358.25 L83.191 1352.37 Z" fill="#000000" fill-rule="nonzero" fill-opacity="1" /><path clip-path="url(#clip550)" d="M111.108 1327.76 L99.3021 1346.21 L111.108 1346.21 L111.108 1327.76 M109.881 1323.69 L115.76 1323.69 L115.76 1346.21 L120.691 1346.21 L120.691 1350.1 L115.76 1350.1 L115.76 1358.25 L111.108 1358.25 L111.108 1350.1 L95.5058 1350.1 L95.5058 1345.58 L109.881 1323.69 Z" fill="#000000" fill-rule="nonzero" fill-opacity="1" /><path clip-path="url(#clip550)" d="M138.422 1341.83 Q135.089 1341.83 133.168 1343.62 Q131.269 1345.4 131.269 1348.52 Q131.269 1351.65 133.168 1353.43 Q135.089 1355.21 138.422 1355.21 Q141.756 1355.21 143.677 1353.43 Q145.598 1351.63 145.598 1348.52 Q145.598 1345.4 143.677 1343.62 Q141.779 1341.83 138.422 1341.83 M133.746 1339.84 Q130.737 1339.1 129.047 1337.04 Q127.381 1334.98 127.381 1332.02 Q127.381 1327.88 130.32 1325.47 Q133.283 1323.06 138.422 1323.06 Q143.584 1323.06 146.524 1325.47 Q149.464 1327.88 149.464 1332.02 Q149.464 1334.98 147.774 1337.04 Q146.107 1339.1 143.121 1339.84 Q146.501 1340.63 148.376 1342.92 Q150.274 1345.21 150.274 1348.52 Q150.274 1353.55 147.195 1356.23 Q144.14 1358.92 138.422 1358.92 Q132.705 1358.92 129.626 1356.23 Q126.57 1353.55 126.57 1348.52 Q126.57 1345.21 128.469 1342.92 Q130.367 1340.63 133.746 1339.84 M132.033 1332.46 Q132.033 1335.15 133.7 1336.65 Q135.39 1338.15 138.422 1338.15 Q141.431 1338.15 143.121 1336.65 Q144.834 1335.15 144.834 1332.46 Q144.834 1329.77 143.121 1328.27 Q141.431 1326.77 138.422 1326.77 Q135.39 1326.77 133.7 1328.27 Q132.033 1329.77 132.033 1332.46 Z" fill="#000000" fill-rule="nonzero" fill-opacity="1" /><path clip-path="url(#clip550)" d="M63.1217 1111.39 Q59.5106 1111.39 57.6819 1114.96 Q55.8764 1118.5 55.8764 1125.63 Q55.8764 1132.74 57.6819 1136.3 Q59.5106 1139.84 63.1217 1139.84 Q66.7559 1139.84 68.5615 1136.3 Q70.3902 1132.74 70.3902 1125.63 Q70.3902 1118.5 68.5615 1114.96 Q66.7559 1111.39 63.1217 1111.39 M63.1217 1107.69 Q68.9318 1107.69 71.9874 1112.3 Q75.0661 1116.88 75.0661 1125.63 Q75.0661 1134.36 71.9874 1138.96 Q68.9318 1143.55 63.1217 1143.55 Q57.3115 1143.55 54.2328 1138.96 Q51.1773 1134.36 51.1773 1125.63 Q51.1773 1116.88 54.2328 1112.3 Q57.3115 1107.69 63.1217 1107.69 Z" fill="#000000" fill-rule="nonzero" fill-opacity="1" /><path clip-path="url(#clip550)" d="M83.2836 1137 L88.1679 1137 L88.1679 1142.88 L83.2836 1142.88 L83.2836 1137 Z" fill="#000000" fill-rule="nonzero" fill-opacity="1" /><path clip-path="url(#clip550)" d="M111.2 1112.39 L99.3946 1130.84 L111.2 1130.84 L111.2 1112.39 M109.973 1108.32 L115.853 1108.32 L115.853 1130.84 L120.783 1130.84 L120.783 1134.73 L115.853 1134.73 L115.853 1142.88 L111.2 1142.88 L111.2 1134.73 L95.5984 1134.73 L95.5984 1130.21 L109.973 1108.32 Z" fill="#000000" fill-rule="nonzero" fill-opacity="1" /><path clip-path="url(#clip550)" d="M128.654 1142.16 L128.654 1137.9 Q130.413 1138.73 132.219 1139.17 Q134.024 1139.61 135.76 1139.61 Q140.39 1139.61 142.82 1136.51 Q145.274 1133.38 145.621 1127.04 Q144.279 1129.03 142.218 1130.1 Q140.158 1131.16 137.658 1131.16 Q132.473 1131.16 129.441 1128.04 Q126.432 1124.89 126.432 1119.45 Q126.432 1114.13 129.58 1110.91 Q132.728 1107.69 137.959 1107.69 Q143.955 1107.69 147.103 1112.3 Q150.274 1116.88 150.274 1125.63 Q150.274 1133.8 146.385 1138.69 Q142.519 1143.55 135.969 1143.55 Q134.209 1143.55 132.404 1143.2 Q130.598 1142.85 128.654 1142.16 M137.959 1127.5 Q141.107 1127.5 142.936 1125.35 Q144.788 1123.2 144.788 1119.45 Q144.788 1115.72 142.936 1113.57 Q141.107 1111.39 137.959 1111.39 Q134.811 1111.39 132.959 1113.57 Q131.131 1115.72 131.131 1119.45 Q131.131 1123.2 132.959 1125.35 Q134.811 1127.5 137.959 1127.5 Z" fill="#000000" fill-rule="nonzero" fill-opacity="1" /><path clip-path="url(#clip550)" d="M62.9365 896.022 Q59.3254 896.022 57.4967 899.587 Q55.6912 903.129 55.6912 910.258 Q55.6912 917.365 57.4967 920.93 Q59.3254 924.471 62.9365 924.471 Q66.5707 924.471 68.3763 920.93 Q70.205 917.365 70.205 910.258 Q70.205 903.129 68.3763 899.587 Q66.5707 896.022 62.9365 896.022 M62.9365 892.319 Q68.7467 892.319 71.8022 896.925 Q74.8809 901.508 74.8809 910.258 Q74.8809 918.985 71.8022 923.592 Q68.7467 928.175 62.9365 928.175 Q57.1264 928.175 54.0477 923.592 Q50.9921 918.985 50.9921 910.258 Q50.9921 901.508 54.0477 896.925 Q57.1264 892.319 62.9365 892.319 Z" fill="#000000" fill-rule="nonzero" fill-opacity="1" /><path clip-path="url(#clip550)" d="M83.0984 921.624 L87.9827 921.624 L87.9827 927.504 L83.0984 927.504 L83.0984 921.624 Z" fill="#000000" fill-rule="nonzero" fill-opacity="1" /><path clip-path="url(#clip550)" d="M98.2141 892.944 L116.57 892.944 L116.57 896.879 L102.496 896.879 L102.496 905.351 Q103.515 905.004 104.534 904.842 Q105.552 904.656 106.571 904.656 Q112.358 904.656 115.737 907.828 Q119.117 910.999 119.117 916.416 Q119.117 921.994 115.645 925.096 Q112.172 928.175 105.853 928.175 Q103.677 928.175 101.409 927.805 Q99.1632 927.434 96.7558 926.693 L96.7558 921.994 Q98.8391 923.129 101.061 923.684 Q103.284 924.24 105.76 924.24 Q109.765 924.24 112.103 922.133 Q114.441 920.027 114.441 916.416 Q114.441 912.805 112.103 910.698 Q109.765 908.592 105.76 908.592 Q103.885 908.592 102.01 909.008 Q100.159 909.425 98.2141 910.305 L98.2141 892.944 Z" fill="#000000" fill-rule="nonzero" fill-opacity="1" /><path clip-path="url(#clip550)" d="M138.33 896.022 Q134.719 896.022 132.89 899.587 Q131.084 903.129 131.084 910.258 Q131.084 917.365 132.89 920.93 Q134.719 924.471 138.33 924.471 Q141.964 924.471 143.769 920.93 Q145.598 917.365 145.598 910.258 Q145.598 903.129 143.769 899.587 Q141.964 896.022 138.33 896.022 M138.33 892.319 Q144.14 892.319 147.195 896.925 Q150.274 901.508 150.274 910.258 Q150.274 918.985 147.195 923.592 Q144.14 928.175 138.33 928.175 Q132.519 928.175 129.441 923.592 Q126.385 918.985 126.385 910.258 Q126.385 901.508 129.441 896.925 Q132.519 892.319 138.33 892.319 Z" fill="#000000" fill-rule="nonzero" fill-opacity="1" /><path clip-path="url(#clip550)" d="M64.1634 680.651 Q60.5523 680.651 58.7236 684.215 Q56.918 687.757 56.918 694.887 Q56.918 701.993 58.7236 705.558 Q60.5523 709.1 64.1634 709.1 Q67.7976 709.1 69.6031 705.558 Q71.4318 701.993 71.4318 694.887 Q71.4318 687.757 69.6031 684.215 Q67.7976 680.651 64.1634 680.651 M64.1634 676.947 Q69.9735 676.947 73.029 681.553 Q76.1077 686.137 76.1077 694.887 Q76.1077 703.614 73.029 708.22 Q69.9735 712.803 64.1634 712.803 Q58.3532 712.803 55.2745 708.22 Q52.219 703.614 52.219 694.887 Q52.219 686.137 55.2745 681.553 Q58.3532 676.947 64.1634 676.947 Z" fill="#000000" fill-rule="nonzero" fill-opacity="1" /><path clip-path="url(#clip550)" d="M84.3253 706.252 L89.2095 706.252 L89.2095 712.132 L84.3253 712.132 L84.3253 706.252 Z" fill="#000000" fill-rule="nonzero" fill-opacity="1" /><path clip-path="url(#clip550)" d="M99.4409 677.572 L117.797 677.572 L117.797 681.507 L103.723 681.507 L103.723 689.979 Q104.742 689.632 105.76 689.47 Q106.779 689.285 107.797 689.285 Q113.584 689.285 116.964 692.456 Q120.344 695.627 120.344 701.044 Q120.344 706.623 116.871 709.725 Q113.399 712.803 107.08 712.803 Q104.904 712.803 102.635 712.433 Q100.39 712.063 97.9826 711.322 L97.9826 706.623 Q100.066 707.757 102.288 708.313 Q104.51 708.868 106.987 708.868 Q110.992 708.868 113.33 706.762 Q115.668 704.655 115.668 701.044 Q115.668 697.433 113.33 695.327 Q110.992 693.22 106.987 693.22 Q105.112 693.22 103.237 693.637 Q101.385 694.053 99.4409 694.933 L99.4409 677.572 Z" fill="#000000" fill-rule="nonzero" fill-opacity="1" /><path clip-path="url(#clip550)" d="M130.367 708.197 L138.006 708.197 L138.006 681.831 L129.695 683.498 L129.695 679.239 L137.959 677.572 L142.635 677.572 L142.635 708.197 L150.274 708.197 L150.274 712.132 L130.367 712.132 L130.367 708.197 Z" fill="#000000" fill-rule="nonzero" fill-opacity="1" /><path clip-path="url(#clip550)" d="M64.5337 465.279 Q60.9226 465.279 59.0939 468.844 Q57.2884 472.385 57.2884 479.515 Q57.2884 486.622 59.0939 490.186 Q60.9226 493.728 64.5337 493.728 Q68.168 493.728 69.9735 490.186 Q71.8022 486.622 71.8022 479.515 Q71.8022 472.385 69.9735 468.844 Q68.168 465.279 64.5337 465.279 M64.5337 461.575 Q70.3439 461.575 73.3994 466.182 Q76.4781 470.765 76.4781 479.515 Q76.4781 488.242 73.3994 492.848 Q70.3439 497.432 64.5337 497.432 Q58.7236 497.432 55.6449 492.848 Q52.5893 488.242 52.5893 479.515 Q52.5893 470.765 55.6449 466.182 Q58.7236 461.575 64.5337 461.575 Z" fill="#000000" fill-rule="nonzero" fill-opacity="1" /><path clip-path="url(#clip550)" d="M84.6956 490.881 L89.5799 490.881 L89.5799 496.76 L84.6956 496.76 L84.6956 490.881 Z" fill="#000000" fill-rule="nonzero" fill-opacity="1" /><path clip-path="url(#clip550)" d="M99.8113 462.2 L118.168 462.2 L118.168 466.136 L104.094 466.136 L104.094 474.608 Q105.112 474.26 106.131 474.098 Q107.149 473.913 108.168 473.913 Q113.955 473.913 117.334 477.085 Q120.714 480.256 120.714 485.672 Q120.714 491.251 117.242 494.353 Q113.77 497.432 107.45 497.432 Q105.274 497.432 103.006 497.061 Q100.76 496.691 98.353 495.95 L98.353 491.251 Q100.436 492.385 102.659 492.941 Q104.881 493.496 107.358 493.496 Q111.362 493.496 113.7 491.39 Q116.038 489.284 116.038 485.672 Q116.038 482.061 113.7 479.955 Q111.362 477.848 107.358 477.848 Q105.483 477.848 103.608 478.265 Q101.756 478.682 99.8113 479.561 L99.8113 462.2 Z" fill="#000000" fill-rule="nonzero" fill-opacity="1" /><path clip-path="url(#clip550)" d="M133.955 492.825 L150.274 492.825 L150.274 496.76 L128.33 496.76 L128.33 492.825 Q130.992 490.071 135.575 485.441 Q140.181 480.788 141.362 479.446 Q143.607 476.923 144.487 475.186 Q145.39 473.427 145.39 471.737 Q145.39 468.983 143.445 467.247 Q141.524 465.511 138.422 465.511 Q136.223 465.511 133.769 466.274 Q131.339 467.038 128.561 468.589 L128.561 463.867 Q131.385 462.733 133.839 462.154 Q136.293 461.575 138.33 461.575 Q143.7 461.575 146.894 464.261 Q150.089 466.946 150.089 471.436 Q150.089 473.566 149.279 475.487 Q148.492 477.385 146.385 479.978 Q145.806 480.649 142.705 483.867 Q139.603 487.061 133.955 492.825 Z" fill="#000000" fill-rule="nonzero" fill-opacity="1" /><path clip-path="url(#clip550)" d="M63.5847 249.907 Q59.9736 249.907 58.1449 253.472 Q56.3393 257.014 56.3393 264.143 Q56.3393 271.25 58.1449 274.815 Q59.9736 278.356 63.5847 278.356 Q67.2189 278.356 69.0244 274.815 Q70.8531 271.25 70.8531 264.143 Q70.8531 257.014 69.0244 253.472 Q67.2189 249.907 63.5847 249.907 M63.5847 246.204 Q69.3948 246.204 72.4503 250.81 Q75.529 255.394 75.529 264.143 Q75.529 272.87 72.4503 277.477 Q69.3948 282.06 63.5847 282.06 Q57.7745 282.06 54.6958 277.477 Q51.6403 272.87 51.6403 264.143 Q51.6403 255.394 54.6958 250.81 Q57.7745 246.204 63.5847 246.204 Z" fill="#000000" fill-rule="nonzero" fill-opacity="1" /><path clip-path="url(#clip550)" d="M83.7466 275.509 L88.6308 275.509 L88.6308 281.389 L83.7466 281.389 L83.7466 275.509 Z" fill="#000000" fill-rule="nonzero" fill-opacity="1" /><path clip-path="url(#clip550)" d="M98.8622 246.829 L117.219 246.829 L117.219 250.764 L103.145 250.764 L103.145 259.236 Q104.163 258.889 105.182 258.727 Q106.2 258.542 107.219 258.542 Q113.006 258.542 116.385 261.713 Q119.765 264.884 119.765 270.301 Q119.765 275.88 116.293 278.981 Q112.82 282.06 106.501 282.06 Q104.325 282.06 102.057 281.69 Q99.8113 281.319 97.4039 280.579 L97.4039 275.88 Q99.4872 277.014 101.709 277.569 Q103.932 278.125 106.408 278.125 Q110.413 278.125 112.751 276.018 Q115.089 273.912 115.089 270.301 Q115.089 266.69 112.751 264.583 Q110.413 262.477 106.408 262.477 Q104.534 262.477 102.659 262.893 Q100.807 263.31 98.8622 264.19 L98.8622 246.829 Z" fill="#000000" fill-rule="nonzero" fill-opacity="1" /><path clip-path="url(#clip550)" d="M143.144 262.755 Q146.501 263.472 148.376 265.741 Q150.274 268.009 150.274 271.343 Q150.274 276.458 146.756 279.259 Q143.237 282.06 136.756 282.06 Q134.58 282.06 132.265 281.62 Q129.973 281.204 127.519 280.347 L127.519 275.833 Q129.464 276.967 131.779 277.546 Q134.094 278.125 136.617 278.125 Q141.015 278.125 143.306 276.389 Q145.621 274.653 145.621 271.343 Q145.621 268.287 143.468 266.574 Q141.339 264.838 137.519 264.838 L133.492 264.838 L133.492 260.995 L137.705 260.995 Q141.154 260.995 142.982 259.63 Q144.811 258.241 144.811 255.648 Q144.811 252.986 142.913 251.574 Q141.038 250.139 137.519 250.139 Q135.598 250.139 133.399 250.556 Q131.2 250.972 128.561 251.852 L128.561 247.685 Q131.223 246.944 133.538 246.574 Q135.876 246.204 137.936 246.204 Q143.26 246.204 146.362 248.634 Q149.464 251.042 149.464 255.162 Q149.464 258.032 147.82 260.023 Q146.177 261.991 143.144 262.755 Z" fill="#000000" fill-rule="nonzero" fill-opacity="1" /><path clip-path="url(#clip550)" d="M987.592 14.0809 L987.592 22.0612 Q982.934 19.8332 978.802 18.7395 Q974.67 17.6457 970.822 17.6457 Q964.138 17.6457 960.492 20.2383 Q956.886 22.8309 956.886 27.611 Q956.886 31.6214 959.276 33.6873 Q961.707 35.7128 968.431 36.9686 L973.374 37.9813 Q982.529 39.7232 986.863 44.1387 Q991.238 48.5136 991.238 55.8863 Q991.238 64.6767 985.324 69.2137 Q979.45 73.7508 968.067 73.7508 Q963.773 73.7508 958.912 72.7785 Q954.091 71.8063 948.906 69.9024 L948.906 61.4765 Q953.889 64.2716 958.669 65.6895 Q963.449 67.1073 968.067 67.1073 Q975.075 67.1073 978.883 64.3527 Q982.691 61.598 982.691 56.4939 Q982.691 52.0379 979.936 49.5264 Q977.222 47.0148 970.984 45.759 L966.001 44.7868 Q956.846 42.9639 952.754 39.075 Q948.663 35.1862 948.663 28.2591 Q948.663 20.2383 954.294 15.6203 Q959.965 11.0023 969.89 11.0023 Q974.143 11.0023 978.559 11.7719 Q982.974 12.5416 987.592 14.0809 Z" fill="#000000" fill-rule="nonzero" fill-opacity="1" /><path clip-path="url(#clip550)" d="M1011.05 14.324 L1011.05 27.2059 L1026.4 27.2059 L1026.4 32.9987 L1011.05 32.9987 L1011.05 57.6282 Q1011.05 63.1779 1012.55 64.7578 Q1014.09 66.3376 1018.74 66.3376 L1026.4 66.3376 L1026.4 72.576 L1018.74 72.576 Q1010.12 72.576 1006.83 69.3758 Q1003.55 66.1351 1003.55 57.6282 L1003.55 32.9987 L998.084 32.9987 L998.084 27.2059 L1003.55 27.2059 L1003.55 14.324 L1011.05 14.324 Z" fill="#000000" fill-rule="nonzero" fill-opacity="1" /><path clip-path="url(#clip550)" d="M1056.82 49.7694 Q1047.79 49.7694 1044.3 51.8354 Q1040.82 53.9013 1040.82 58.8839 Q1040.82 62.8538 1043.41 65.2034 Q1046.05 67.5124 1050.54 67.5124 Q1056.74 67.5124 1060.47 63.1374 Q1064.24 58.7219 1064.24 51.4303 L1064.24 49.7694 L1056.82 49.7694 M1071.69 46.6907 L1071.69 72.576 L1064.24 72.576 L1064.24 65.6895 Q1061.68 69.8214 1057.88 71.8063 Q1054.07 73.7508 1048.56 73.7508 Q1041.59 73.7508 1037.46 69.8619 Q1033.37 65.9325 1033.37 59.3701 Q1033.37 51.7138 1038.47 47.825 Q1043.62 43.9361 1053.78 43.9361 L1064.24 43.9361 L1064.24 43.2069 Q1064.24 38.0623 1060.83 35.2672 Q1057.47 32.4315 1051.35 32.4315 Q1047.46 32.4315 1043.78 33.3632 Q1040.09 34.295 1036.69 36.1584 L1036.69 29.2718 Q1040.78 27.692 1044.63 26.9223 Q1048.48 26.1121 1052.12 26.1121 Q1061.97 26.1121 1066.83 31.2163 Q1071.69 36.3204 1071.69 46.6907 Z" fill="#000000" fill-rule="nonzero" fill-opacity="1" /><path clip-path="url(#clip550)" d="M1094.41 14.324 L1094.41 27.2059 L1109.77 27.2059 L1109.77 32.9987 L1094.41 32.9987 L1094.41 57.6282 Q1094.41 63.1779 1095.91 64.7578 Q1097.45 66.3376 1102.11 66.3376 L1109.77 66.3376 L1109.77 72.576 L1102.11 72.576 Q1093.48 72.576 1090.2 69.3758 Q1086.92 66.1351 1086.92 57.6282 L1086.92 32.9987 L1081.45 32.9987 L1081.45 27.2059 L1086.92 27.2059 L1086.92 14.324 L1094.41 14.324 Z" fill="#000000" fill-rule="nonzero" fill-opacity="1" /><path clip-path="url(#clip550)" d="M1158.38 48.0275 L1158.38 51.6733 L1124.11 51.6733 Q1124.59 59.3701 1128.73 63.421 Q1132.9 67.4314 1140.31 67.4314 Q1144.61 67.4314 1148.62 66.3781 Q1152.67 65.3249 1156.64 63.2184 L1156.64 70.267 Q1152.63 71.9684 1148.41 72.8596 Q1144.2 73.7508 1139.87 73.7508 Q1129.01 73.7508 1122.65 67.4314 Q1116.33 61.1119 1116.33 50.3365 Q1116.33 39.1965 1122.33 32.6746 Q1128.36 26.1121 1138.57 26.1121 Q1147.72 26.1121 1153.03 32.0264 Q1158.38 37.9003 1158.38 48.0275 M1150.92 45.84 Q1150.84 39.7232 1147.48 36.0774 Q1144.16 32.4315 1138.65 32.4315 Q1132.41 32.4315 1128.64 35.9558 Q1124.92 39.4801 1124.35 45.8805 L1150.92 45.84 Z" fill="#000000" fill-rule="nonzero" fill-opacity="1" /><path clip-path="url(#clip550)" d="M1204.36 14.324 L1204.36 27.2059 L1219.71 27.2059 L1219.71 32.9987 L1204.36 32.9987 L1204.36 57.6282 Q1204.36 63.1779 1205.85 64.7578 Q1207.39 66.3376 1212.05 66.3376 L1219.71 66.3376 L1219.71 72.576 L1212.05 72.576 Q1203.42 72.576 1200.14 69.3758 Q1196.86 66.1351 1196.86 57.6282 L1196.86 32.9987 L1191.39 32.9987 L1191.39 27.2059 L1196.86 27.2059 L1196.86 14.324 L1204.36 14.324 Z" fill="#000000" fill-rule="nonzero" fill-opacity="1" /><path clip-path="url(#clip550)" d="M1255.8 34.1734 Q1254.55 33.4443 1253.05 33.1202 Q1251.59 32.7556 1249.81 32.7556 Q1243.49 32.7556 1240.09 36.8875 Q1236.72 40.9789 1236.72 48.6757 L1236.72 72.576 L1229.23 72.576 L1229.23 27.2059 L1236.72 27.2059 L1236.72 34.2544 Q1239.07 30.1225 1242.84 28.1376 Q1246.61 26.1121 1251.99 26.1121 Q1252.76 26.1121 1253.7 26.2337 Q1254.63 26.3147 1255.76 26.5172 L1255.8 34.1734 Z" fill="#000000" fill-rule="nonzero" fill-opacity="1" /><path clip-path="url(#clip550)" d="M1284.24 49.7694 Q1275.21 49.7694 1271.72 51.8354 Q1268.24 53.9013 1268.24 58.8839 Q1268.24 62.8538 1270.83 65.2034 Q1273.46 67.5124 1277.96 67.5124 Q1284.16 67.5124 1287.89 63.1374 Q1291.65 58.7219 1291.65 51.4303 L1291.65 49.7694 L1284.24 49.7694 M1299.11 46.6907 L1299.11 72.576 L1291.65 72.576 L1291.65 65.6895 Q1289.1 69.8214 1285.29 71.8063 Q1281.49 73.7508 1275.98 73.7508 Q1269.01 73.7508 1264.88 69.8619 Q1260.79 65.9325 1260.79 59.3701 Q1260.79 51.7138 1265.89 47.825 Q1271.03 43.9361 1281.2 43.9361 L1291.65 43.9361 L1291.65 43.2069 Q1291.65 38.0623 1288.25 35.2672 Q1284.89 32.4315 1278.77 32.4315 Q1274.88 32.4315 1271.2 33.3632 Q1267.51 34.295 1264.11 36.1584 L1264.11 29.2718 Q1268.2 27.692 1272.05 26.9223 Q1275.9 26.1121 1279.54 26.1121 Q1289.38 26.1121 1294.25 31.2163 Q1299.11 36.3204 1299.11 46.6907 Z" fill="#000000" fill-rule="nonzero" fill-opacity="1" /><path clip-path="url(#clip550)" d="M1314.46 27.2059 L1321.91 27.2059 L1321.91 73.3862 Q1321.91 82.0551 1318.59 85.944 Q1315.31 89.8329 1307.98 89.8329 L1305.14 89.8329 L1305.14 83.5134 L1307.13 83.5134 Q1311.38 83.5134 1312.92 81.5285 Q1314.46 79.5841 1314.46 73.3862 L1314.46 27.2059 M1314.46 9.54393 L1321.91 9.54393 L1321.91 18.9825 L1314.46 18.9825 L1314.46 9.54393 Z" fill="#000000" fill-rule="nonzero" fill-opacity="1" /><path clip-path="url(#clip550)" d="M1376.32 48.0275 L1376.32 51.6733 L1342.05 51.6733 Q1342.53 59.3701 1346.66 63.421 Q1350.84 67.4314 1358.25 67.4314 Q1362.54 67.4314 1366.55 66.3781 Q1370.61 65.3249 1374.58 63.2184 L1374.58 70.267 Q1370.56 71.9684 1366.35 72.8596 Q1362.14 73.7508 1357.8 73.7508 Q1346.95 73.7508 1340.59 67.4314 Q1334.27 61.1119 1334.27 50.3365 Q1334.27 39.1965 1340.26 32.6746 Q1346.3 26.1121 1356.51 26.1121 Q1365.66 26.1121 1370.97 32.0264 Q1376.32 37.9003 1376.32 48.0275 M1368.86 45.84 Q1368.78 39.7232 1365.42 36.0774 Q1362.1 32.4315 1356.59 32.4315 Q1350.35 32.4315 1346.58 35.9558 Q1342.86 39.4801 1342.29 45.8805 L1368.86 45.84 Z" fill="#000000" fill-rule="nonzero" fill-opacity="1" /><path clip-path="url(#clip550)" d="M1421.2 28.9478 L1421.2 35.9153 Q1418.04 34.1734 1414.84 33.3227 Q1411.68 32.4315 1408.44 32.4315 Q1401.19 32.4315 1397.18 37.0496 Q1393.17 41.6271 1393.17 49.9314 Q1393.17 58.2358 1397.18 62.8538 Q1401.19 67.4314 1408.44 67.4314 Q1411.68 67.4314 1414.84 66.5807 Q1418.04 65.6895 1421.2 63.9476 L1421.2 70.8341 Q1418.08 72.2924 1414.72 73.0216 Q1411.4 73.7508 1407.63 73.7508 Q1397.38 73.7508 1391.35 67.3098 Q1385.31 60.8689 1385.31 49.9314 Q1385.31 38.832 1391.39 32.472 Q1397.5 26.1121 1408.12 26.1121 Q1411.56 26.1121 1414.84 26.8413 Q1418.12 27.5299 1421.2 28.9478 Z" fill="#000000" fill-rule="nonzero" fill-opacity="1" /><path clip-path="url(#clip550)" d="M1441.54 14.324 L1441.54 27.2059 L1456.89 27.2059 L1456.89 32.9987 L1441.54 32.9987 L1441.54 57.6282 Q1441.54 63.1779 1443.04 64.7578 Q1444.57 66.3376 1449.23 66.3376 L1456.89 66.3376 L1456.89 72.576 L1449.23 72.576 Q1440.6 72.576 1437.32 69.3758 Q1434.04 66.1351 1434.04 57.6282 L1434.04 32.9987 L1428.57 32.9987 L1428.57 27.2059 L1434.04 27.2059 L1434.04 14.324 L1441.54 14.324 Z" fill="#000000" fill-rule="nonzero" fill-opacity="1" /><path clip-path="url(#clip550)" d="M1484.27 32.4315 Q1478.28 32.4315 1474.79 37.1306 Q1471.31 41.7891 1471.31 49.9314 Q1471.31 58.0738 1474.75 62.7728 Q1478.24 67.4314 1484.27 67.4314 Q1490.23 67.4314 1493.71 62.7323 Q1497.2 58.0333 1497.2 49.9314 Q1497.2 41.8701 1493.71 37.1711 Q1490.23 32.4315 1484.27 32.4315 M1484.27 26.1121 Q1494 26.1121 1499.55 32.4315 Q1505.1 38.7509 1505.1 49.9314 Q1505.1 61.0714 1499.55 67.4314 Q1494 73.7508 1484.27 73.7508 Q1474.51 73.7508 1468.96 67.4314 Q1463.45 61.0714 1463.45 49.9314 Q1463.45 38.7509 1468.96 32.4315 Q1474.51 26.1121 1484.27 26.1121 Z" fill="#000000" fill-rule="nonzero" fill-opacity="1" /><path clip-path="url(#clip550)" d="M1543.74 34.1734 Q1542.49 33.4443 1540.99 33.1202 Q1539.53 32.7556 1537.75 32.7556 Q1531.43 32.7556 1528.02 36.8875 Q1524.66 40.9789 1524.66 48.6757 L1524.66 72.576 L1517.17 72.576 L1517.17 27.2059 L1524.66 27.2059 L1524.66 34.2544 Q1527.01 30.1225 1530.78 28.1376 Q1534.55 26.1121 1539.93 26.1121 Q1540.7 26.1121 1541.63 26.2337 Q1542.57 26.3147 1543.7 26.5172 L1543.74 34.1734 Z" fill="#000000" fill-rule="nonzero" fill-opacity="1" /><path clip-path="url(#clip550)" d="M1570.44 76.7889 Q1567.28 84.8907 1564.28 87.3618 Q1561.28 89.8329 1556.26 89.8329 L1550.3 89.8329 L1550.3 83.5945 L1554.68 83.5945 Q1557.76 83.5945 1559.46 82.1361 Q1561.16 80.6778 1563.23 75.2496 L1564.56 71.8468 L1546.21 27.2059 L1554.11 27.2059 L1568.29 62.6918 L1582.47 27.2059 L1590.37 27.2059 L1570.44 76.7889 Z" fill="#000000" fill-rule="nonzero" fill-opacity="1" /><circle clip-path="url(#clip552)" cx="383.846" cy="641.065" r="18" fill="#009af9" fill-rule="evenodd" fill-opacity="1" stroke="#000000" stroke-opacity="1" stroke-width="3.2"/>
<circle clip-path="url(#clip552)" cx="520.103" cy="916.953" r="18" fill="#009af9" fill-rule="evenodd" fill-opacity="1" stroke="#000000" stroke-opacity="1" stroke-width="3.2"/>
<circle clip-path="url(#clip552)" cx="656.36" cy="1185.94" r="18" fill="#009af9" fill-rule="evenodd" fill-opacity="1" stroke="#000000" stroke-opacity="1" stroke-width="3.2"/>
<circle clip-path="url(#clip552)" cx="792.616" cy="1447.87" r="18" fill="#009af9" fill-rule="evenodd" fill-opacity="1" stroke="#000000" stroke-opacity="1" stroke-width="3.2"/>
<circle clip-path="url(#clip552)" cx="928.873" cy="1165.62" r="18" fill="#009af9" fill-rule="evenodd" fill-opacity="1" stroke="#000000" stroke-opacity="1" stroke-width="3.2"/>
<circle clip-path="url(#clip552)" cx="1065.13" cy="890.065" r="18" fill="#009af9" fill-rule="evenodd" fill-opacity="1" stroke="#000000" stroke-opacity="1" stroke-width="3.2"/>
<circle clip-path="url(#clip552)" cx="1201.39" cy="621.424" r="18" fill="#009af9" fill-rule="evenodd" fill-opacity="1" stroke="#000000" stroke-opacity="1" stroke-width="3.2"/>
<circle clip-path="url(#clip552)" cx="1337.64" cy="359.84" r="18" fill="#009af9" fill-rule="evenodd" fill-opacity="1" stroke="#000000" stroke-opacity="1" stroke-width="3.2"/>
<circle clip-path="url(#clip552)" cx="1473.9" cy="642.39" r="18" fill="#009af9" fill-rule="evenodd" fill-opacity="1" stroke="#000000" stroke-opacity="1" stroke-width="3.2"/>
<circle clip-path="url(#clip552)" cx="1610.16" cy="380.244" r="18" fill="#009af9" fill-rule="evenodd" fill-opacity="1" stroke="#000000" stroke-opacity="1" stroke-width="3.2"/>
<circle clip-path="url(#clip552)" cx="1746.41" cy="662.324" r="18" fill="#009af9" fill-rule="evenodd" fill-opacity="1" stroke="#000000" stroke-opacity="1" stroke-width="3.2"/>
<circle clip-path="url(#clip552)" cx="1882.67" cy="399.646" r="18" fill="#009af9" fill-rule="evenodd" fill-opacity="1" stroke="#000000" stroke-opacity="1" stroke-width="3.2"/>
<circle clip-path="url(#clip552)" cx="2018.93" cy="681.276" r="18" fill="#009af9" fill-rule="evenodd" fill-opacity="1" stroke="#000000" stroke-opacity="1" stroke-width="3.2"/>
<circle clip-path="url(#clip552)" cx="2155.18" cy="418.094" r="18" fill="#009af9" fill-rule="evenodd" fill-opacity="1" stroke="#000000" stroke-opacity="1" stroke-width="3.2"/>
<circle clip-path="url(#clip552)" cx="2291.44" cy="162.047" r="18" fill="#009af9" fill-rule="evenodd" fill-opacity="1" stroke="#000000" stroke-opacity="1" stroke-width="3.2"/>
<path clip-path="url(#clip550)" d="M1645.58 1441.02 L2280.54 1441.02 L2280.54 1337.34 L1645.58 1337.34  Z" fill="#ffffff" fill-rule="evenodd" fill-opacity="1"/>
<polyline clip-path="url(#clip550)" style="stroke:#000000; stroke-linecap:round; stroke-linejoin:round; stroke-width:4; stroke-opacity:1; fill:none" points="1645.58,1441.02 2280.54,1441.02 2280.54,1337.34 1645.58,1337.34 1645.58,1441.02 "/>
<circle clip-path="url(#clip550)" cx="1741.87" cy="1389.18" r="20.9455" fill="#009af9" fill-rule="evenodd" fill-opacity="1" stroke="#000000" stroke-opacity="1" stroke-width="3.72364"/>
<path clip-path="url(#clip550)" d="M1851.56 1393.42 Q1846.4 1393.42 1844.41 1394.6 Q1842.42 1395.78 1842.42 1398.63 Q1842.42 1400.9 1843.9 1402.24 Q1845.41 1403.56 1847.97 1403.56 Q1851.52 1403.56 1853.65 1401.06 Q1855.8 1398.54 1855.8 1394.37 L1855.8 1393.42 L1851.56 1393.42 M1860.06 1391.66 L1860.06 1406.46 L1855.8 1406.46 L1855.8 1402.52 Q1854.34 1404.88 1852.16 1406.02 Q1849.99 1407.13 1846.84 1407.13 Q1842.86 1407.13 1840.5 1404.9 Q1838.16 1402.66 1838.16 1398.91 Q1838.16 1394.53 1841.08 1392.31 Q1844.02 1390.09 1849.83 1390.09 L1855.8 1390.09 L1855.8 1389.67 Q1855.8 1386.73 1853.85 1385.14 Q1851.93 1383.52 1848.44 1383.52 Q1846.22 1383.52 1844.11 1384.05 Q1842 1384.58 1840.06 1385.65 L1840.06 1381.71 Q1842.4 1380.81 1844.6 1380.37 Q1846.79 1379.9 1848.88 1379.9 Q1854.5 1379.9 1857.28 1382.82 Q1860.06 1385.74 1860.06 1391.66 Z" fill="#000000" fill-rule="nonzero" fill-opacity="1" /><path clip-path="url(#clip550)" d="M1887.49 1381.52 L1887.49 1385.51 Q1885.68 1384.51 1883.85 1384.02 Q1882.05 1383.52 1880.2 1383.52 Q1876.05 1383.52 1873.76 1386.15 Q1871.47 1388.77 1871.47 1393.52 Q1871.47 1398.26 1873.76 1400.9 Q1876.05 1403.52 1880.2 1403.52 Q1882.05 1403.52 1883.85 1403.03 Q1885.68 1402.52 1887.49 1401.52 L1887.49 1405.46 Q1885.71 1406.29 1883.78 1406.71 Q1881.89 1407.13 1879.73 1407.13 Q1873.88 1407.13 1870.43 1403.45 Q1866.98 1399.77 1866.98 1393.52 Q1866.98 1387.17 1870.45 1383.54 Q1873.95 1379.9 1880.01 1379.9 Q1881.98 1379.9 1883.85 1380.32 Q1885.73 1380.71 1887.49 1381.52 Z" fill="#000000" fill-rule="nonzero" fill-opacity="1" /><path clip-path="url(#clip550)" d="M1899.11 1373.17 L1899.11 1380.53 L1907.88 1380.53 L1907.88 1383.84 L1899.11 1383.84 L1899.11 1397.91 Q1899.11 1401.09 1899.97 1401.99 Q1900.84 1402.89 1903.51 1402.89 L1907.88 1402.89 L1907.88 1406.46 L1903.51 1406.46 Q1898.58 1406.46 1896.7 1404.63 Q1894.83 1402.77 1894.83 1397.91 L1894.83 1383.84 L1891.7 1383.84 L1891.7 1380.53 L1894.83 1380.53 L1894.83 1373.17 L1899.11 1373.17 Z" fill="#000000" fill-rule="nonzero" fill-opacity="1" /><path clip-path="url(#clip550)" d="M1913.48 1380.53 L1917.74 1380.53 L1917.74 1406.46 L1913.48 1406.46 L1913.48 1380.53 M1913.48 1370.44 L1917.74 1370.44 L1917.74 1375.83 L1913.48 1375.83 L1913.48 1370.44 Z" fill="#000000" fill-rule="nonzero" fill-opacity="1" /><path clip-path="url(#clip550)" d="M1936.7 1383.52 Q1933.28 1383.52 1931.28 1386.2 Q1929.29 1388.86 1929.29 1393.52 Q1929.29 1398.17 1931.26 1400.85 Q1933.25 1403.52 1936.7 1403.52 Q1940.1 1403.52 1942.09 1400.83 Q1944.09 1398.15 1944.09 1393.52 Q1944.09 1388.91 1942.09 1386.22 Q1940.1 1383.52 1936.7 1383.52 M1936.7 1379.9 Q1942.26 1379.9 1945.43 1383.52 Q1948.6 1387.13 1948.6 1393.52 Q1948.6 1399.88 1945.43 1403.52 Q1942.26 1407.13 1936.7 1407.13 Q1931.12 1407.13 1927.95 1403.52 Q1924.8 1399.88 1924.8 1393.52 Q1924.8 1387.13 1927.95 1383.52 Q1931.12 1379.9 1936.7 1379.9 Z" fill="#000000" fill-rule="nonzero" fill-opacity="1" /><path clip-path="url(#clip550)" d="M1977.21 1390.81 L1977.21 1406.46 L1972.95 1406.46 L1972.95 1390.95 Q1972.95 1387.27 1971.52 1385.44 Q1970.08 1383.61 1967.21 1383.61 Q1963.76 1383.61 1961.77 1385.81 Q1959.78 1388.01 1959.78 1391.8 L1959.78 1406.46 L1955.5 1406.46 L1955.5 1380.53 L1959.78 1380.53 L1959.78 1384.56 Q1961.31 1382.22 1963.37 1381.06 Q1965.45 1379.9 1968.16 1379.9 Q1972.63 1379.9 1974.92 1382.68 Q1977.21 1385.44 1977.21 1390.81 Z" fill="#000000" fill-rule="nonzero" fill-opacity="1" /><path clip-path="url(#clip550)" d="M2005.4 1414.33 L2005.4 1417.64 L1980.77 1417.64 L1980.77 1414.33 L2005.4 1414.33 Z" fill="#000000" fill-rule="nonzero" fill-opacity="1" /><path clip-path="url(#clip550)" d="M2013.53 1402.57 L2013.53 1416.32 L2009.25 1416.32 L2009.25 1380.53 L2013.53 1380.53 L2013.53 1384.46 Q2014.87 1382.15 2016.91 1381.04 Q2018.97 1379.9 2021.82 1379.9 Q2026.54 1379.9 2029.48 1383.65 Q2032.44 1387.4 2032.44 1393.52 Q2032.44 1399.63 2029.48 1403.38 Q2026.54 1407.13 2021.82 1407.13 Q2018.97 1407.13 2016.91 1406.02 Q2014.87 1404.88 2013.53 1402.57 M2028.02 1393.52 Q2028.02 1388.82 2026.08 1386.15 Q2024.15 1383.47 2020.77 1383.47 Q2017.4 1383.47 2015.45 1386.15 Q2013.53 1388.82 2013.53 1393.52 Q2013.53 1398.21 2015.45 1400.9 Q2017.4 1403.56 2020.77 1403.56 Q2024.15 1403.56 2026.08 1400.9 Q2028.02 1398.21 2028.02 1393.52 Z" fill="#000000" fill-rule="nonzero" fill-opacity="1" /><path clip-path="url(#clip550)" d="M2054.52 1384.51 Q2053.81 1384.09 2052.95 1383.91 Q2052.12 1383.7 2051.1 1383.7 Q2047.49 1383.7 2045.54 1386.06 Q2043.62 1388.4 2043.62 1392.8 L2043.62 1406.46 L2039.34 1406.46 L2039.34 1380.53 L2043.62 1380.53 L2043.62 1384.56 Q2044.96 1382.2 2047.12 1381.06 Q2049.27 1379.9 2052.35 1379.9 Q2052.79 1379.9 2053.32 1379.97 Q2053.85 1380.02 2054.5 1380.14 L2054.52 1384.51 Z" fill="#000000" fill-rule="nonzero" fill-opacity="1" /><path clip-path="url(#clip550)" d="M2068 1383.52 Q2064.57 1383.52 2062.58 1386.2 Q2060.59 1388.86 2060.59 1393.52 Q2060.59 1398.17 2062.56 1400.85 Q2064.55 1403.52 2068 1403.52 Q2071.4 1403.52 2073.39 1400.83 Q2075.38 1398.15 2075.38 1393.52 Q2075.38 1388.91 2073.39 1386.22 Q2071.4 1383.52 2068 1383.52 M2068 1379.9 Q2073.55 1379.9 2076.72 1383.52 Q2079.89 1387.13 2079.89 1393.52 Q2079.89 1399.88 2076.72 1403.52 Q2073.55 1407.13 2068 1407.13 Q2062.42 1407.13 2059.25 1403.52 Q2056.1 1399.88 2056.1 1393.52 Q2056.1 1387.13 2059.25 1383.52 Q2062.42 1379.9 2068 1379.9 Z" fill="#000000" fill-rule="nonzero" fill-opacity="1" /><path clip-path="url(#clip550)" d="M2105.57 1393.52 Q2105.57 1388.82 2103.62 1386.15 Q2101.7 1383.47 2098.32 1383.47 Q2094.94 1383.47 2093 1386.15 Q2091.08 1388.82 2091.08 1393.52 Q2091.08 1398.21 2093 1400.9 Q2094.94 1403.56 2098.32 1403.56 Q2101.7 1403.56 2103.62 1400.9 Q2105.57 1398.21 2105.57 1393.52 M2091.08 1384.46 Q2092.42 1382.15 2094.45 1381.04 Q2096.51 1379.9 2099.36 1379.9 Q2104.08 1379.9 2107.02 1383.65 Q2109.99 1387.4 2109.99 1393.52 Q2109.99 1399.63 2107.02 1403.38 Q2104.08 1407.13 2099.36 1407.13 Q2096.51 1407.13 2094.45 1406.02 Q2092.42 1404.88 2091.08 1402.57 L2091.08 1406.46 L2086.79 1406.46 L2086.79 1370.44 L2091.08 1370.44 L2091.08 1384.46 Z" fill="#000000" fill-rule="nonzero" fill-opacity="1" /><path clip-path="url(#clip550)" d="M2128.83 1393.42 Q2123.67 1393.42 2121.68 1394.6 Q2119.69 1395.78 2119.69 1398.63 Q2119.69 1400.9 2121.17 1402.24 Q2122.67 1403.56 2125.24 1403.56 Q2128.78 1403.56 2130.91 1401.06 Q2133.07 1398.54 2133.07 1394.37 L2133.07 1393.42 L2128.83 1393.42 M2137.32 1391.66 L2137.32 1406.46 L2133.07 1406.46 L2133.07 1402.52 Q2131.61 1404.88 2129.43 1406.02 Q2127.26 1407.13 2124.11 1407.13 Q2120.13 1407.13 2117.76 1404.9 Q2115.43 1402.66 2115.43 1398.91 Q2115.43 1394.53 2118.34 1392.31 Q2121.28 1390.09 2127.09 1390.09 L2133.07 1390.09 L2133.07 1389.67 Q2133.07 1386.73 2131.12 1385.14 Q2129.2 1383.52 2125.7 1383.52 Q2123.48 1383.52 2121.38 1384.05 Q2119.27 1384.58 2117.33 1385.65 L2117.33 1381.71 Q2119.66 1380.81 2121.86 1380.37 Q2124.06 1379.9 2126.14 1379.9 Q2131.77 1379.9 2134.55 1382.82 Q2137.32 1385.74 2137.32 1391.66 Z" fill="#000000" fill-rule="nonzero" fill-opacity="1" /><path clip-path="url(#clip550)" d="M2164.71 1393.52 Q2164.71 1388.82 2162.76 1386.15 Q2160.84 1383.47 2157.46 1383.47 Q2154.08 1383.47 2152.14 1386.15 Q2150.22 1388.82 2150.22 1393.52 Q2150.22 1398.21 2152.14 1400.9 Q2154.08 1403.56 2157.46 1403.56 Q2160.84 1403.56 2162.76 1400.9 Q2164.71 1398.21 2164.71 1393.52 M2150.22 1384.46 Q2151.56 1382.15 2153.6 1381.04 Q2155.66 1379.9 2158.51 1379.9 Q2163.23 1379.9 2166.17 1383.65 Q2169.13 1387.4 2169.13 1393.52 Q2169.13 1399.63 2166.17 1403.38 Q2163.23 1407.13 2158.51 1407.13 Q2155.66 1407.13 2153.6 1406.02 Q2151.56 1404.88 2150.22 1402.57 L2150.22 1406.46 L2145.94 1406.46 L2145.94 1370.44 L2150.22 1370.44 L2150.22 1384.46 Z" fill="#000000" fill-rule="nonzero" fill-opacity="1" /><path clip-path="url(#clip550)" d="M2176.19 1380.53 L2180.45 1380.53 L2180.45 1406.46 L2176.19 1406.46 L2176.19 1380.53 M2176.19 1370.44 L2180.45 1370.44 L2180.45 1375.83 L2176.19 1375.83 L2176.19 1370.44 Z" fill="#000000" fill-rule="nonzero" fill-opacity="1" /><path clip-path="url(#clip550)" d="M2189.36 1370.44 L2193.62 1370.44 L2193.62 1406.46 L2189.36 1406.46 L2189.36 1370.44 Z" fill="#000000" fill-rule="nonzero" fill-opacity="1" /><path clip-path="url(#clip550)" d="M2202.53 1380.53 L2206.79 1380.53 L2206.79 1406.46 L2202.53 1406.46 L2202.53 1380.53 M2202.53 1370.44 L2206.79 1370.44 L2206.79 1375.83 L2202.53 1375.83 L2202.53 1370.44 Z" fill="#000000" fill-rule="nonzero" fill-opacity="1" /><path clip-path="url(#clip550)" d="M2219.92 1373.17 L2219.92 1380.53 L2228.69 1380.53 L2228.69 1383.84 L2219.92 1383.84 L2219.92 1397.91 Q2219.92 1401.09 2220.77 1401.99 Q2221.65 1402.89 2224.32 1402.89 L2228.69 1402.89 L2228.69 1406.46 L2224.32 1406.46 Q2219.38 1406.46 2217.51 1404.63 Q2215.63 1402.77 2215.63 1397.91 L2215.63 1383.84 L2212.51 1383.84 L2212.51 1380.53 L2215.63 1380.53 L2215.63 1373.17 L2219.92 1373.17 Z" fill="#000000" fill-rule="nonzero" fill-opacity="1" /><path clip-path="url(#clip550)" d="M2245.08 1408.86 Q2243.27 1413.49 2241.56 1414.9 Q2239.85 1416.32 2236.98 1416.32 L2233.57 1416.32 L2233.57 1412.75 L2236.07 1412.75 Q2237.83 1412.75 2238.81 1411.92 Q2239.78 1411.08 2240.96 1407.98 L2241.72 1406.04 L2231.24 1380.53 L2235.75 1380.53 L2243.85 1400.81 L2251.95 1380.53 L2256.47 1380.53 L2245.08 1408.86 Z" fill="#000000" fill-rule="nonzero" fill-opacity="1" /></svg>
